<svg width="92" height="24" viewBox="0 0 92 24" fill="none" xmlns="http://www.w3.org/2000/svg">
<rect width="92" height="24" rx="4" fill="#E1E1E1"/>
<path d="M8.83333 9.16667L10 10.3333L8.83333 11.5M11.1667 11.5H12.5M6.5 6.5H17.5V17.5H6.5V6.5Z" stroke="#636363" stroke-linecap="square"/>
<path d="M28.2247 16.192C26.0767 16.192 24.7567 15.028 24.6727 13.204H26.0527C26.1247 14.392 27.0487 15.076 28.2727 15.076C29.4248 15.076 30.1808 14.596 30.1808 13.732C30.1808 13.012 29.6168 12.664 28.6567 12.46L27.3127 12.172C26.0167 11.896 24.9727 11.14 24.9727 9.832C24.9727 8.404 26.3047 7.396 28.1407 7.396C30.1087 7.396 31.2968 8.452 31.3927 10.048H30.0128C29.9647 9.16 29.2928 8.512 28.0927 8.512C27.0847 8.512 26.3287 8.98 26.3287 9.712C26.3287 10.396 26.8567 10.732 27.7687 10.924L29.2207 11.236C30.5408 11.512 31.5487 12.244 31.5487 13.588C31.5487 15.064 30.3367 16.192 28.2247 16.192ZM32.6226 16V7.6H33.8706V10.456C33.8706 10.624 33.8706 10.792 33.8466 10.984C34.1706 10.42 34.7826 9.988 35.6346 9.988C36.9546 9.988 37.7346 10.864 37.7346 12.328V16H36.4866V12.496C36.4866 11.524 36.0906 10.972 35.2866 10.972C34.4346 10.972 33.8706 11.68 33.8706 12.544V16H32.6226ZM41.6063 16.192C39.8663 16.192 38.7143 15.088 38.7143 13.072C38.7143 11.26 39.9143 9.988 41.5583 9.988C43.3103 9.988 44.3063 11.212 44.3063 13.096V13.36H39.9743C39.9983 14.488 40.6703 15.22 41.6183 15.22C42.2903 15.22 42.8783 14.896 42.9983 14.152H44.2583C44.1383 15.256 43.2263 16.192 41.6063 16.192ZM39.9863 12.472H42.9983C42.9863 11.56 42.4463 10.936 41.5463 10.936C40.6703 10.936 40.0703 11.596 39.9863 12.472ZM45.3613 16V7.6H46.6093V16H45.3613ZM48.0041 16V7.6H49.2521V16H48.0041ZM56.2105 16.192C54.0625 16.192 52.7425 15.028 52.6585 13.204H54.0385C54.1105 14.392 55.0345 15.076 56.2585 15.076C57.4105 15.076 58.1665 14.596 58.1665 13.732C58.1665 13.012 57.6025 12.664 56.6425 12.46L55.2985 12.172C54.0025 11.896 52.9585 11.14 52.9585 9.832C52.9585 8.404 54.2905 7.396 56.1265 7.396C58.0945 7.396 59.2825 8.452 59.3785 10.048H57.9985C57.9505 9.16 57.2785 8.512 56.0785 8.512C55.0705 8.512 54.3145 8.98 54.3145 9.712C54.3145 10.396 54.8425 10.732 55.7545 10.924L57.2065 11.236C58.5265 11.512 59.5345 12.244 59.5345 13.588C59.5345 15.064 58.3225 16.192 56.2105 16.192ZM63.1763 16.192C61.4603 16.192 60.2603 15.076 60.2603 13.084C60.2603 11.188 61.5563 9.988 63.2363 9.988C64.7723 9.988 65.7443 10.912 65.8763 12.256H64.6043C64.5323 11.548 64.0643 10.972 63.2243 10.972C62.2403 10.972 61.5323 11.812 61.5323 13.084C61.5323 14.356 62.2043 15.22 63.2123 15.22C64.0883 15.22 64.5803 14.668 64.6763 13.912H65.9243C65.7683 15.28 64.8323 16.192 63.1763 16.192ZM66.884 16V10.18H68.132V10.528C68.132 10.756 68.132 10.972 68.108 11.188C68.408 10.528 68.996 9.988 69.872 9.988C69.968 9.988 70.064 9.988 70.16 10.012V11.224C70.076 11.212 69.956 11.188 69.788 11.188C68.78 11.188 68.132 11.728 68.132 13.012V16H66.884ZM70.9096 16V10.18H72.1576V16H70.9096ZM70.8616 9.184V7.804H72.2176V9.184H70.8616ZM73.5524 18.472V10.18H74.8004V10.516C74.8004 10.672 74.8004 10.816 74.7764 10.996C75.1244 10.42 75.7964 9.988 76.6964 9.988C78.3044 9.988 79.3124 11.284 79.3124 13.096C79.3124 14.968 78.1964 16.192 76.6484 16.192C75.7484 16.192 75.1484 15.784 74.7764 15.196C74.8004 15.388 74.8004 15.544 74.8004 15.712V18.472H73.5524ZM74.7404 13.084C74.7404 14.356 75.4244 15.22 76.3964 15.22C77.3804 15.22 78.0284 14.344 78.0284 13.084C78.0284 11.848 77.3924 10.972 76.3964 10.972C75.4364 10.972 74.7404 11.788 74.7404 13.084ZM82.5779 16.096C81.5219 16.096 80.8019 15.58 80.8019 14.284V11.188H79.5899V10.18H80.8019V8.164H82.0499V10.18H83.3699V11.188H82.0499V14.116C82.0499 14.764 82.3379 15.052 82.9019 15.052C83.0459 15.052 83.1899 15.04 83.3459 15.016V16.012C83.1659 16.06 82.8779 16.096 82.5779 16.096Z" fill="#636363"/>
</svg>
